<?xml version="1.0" encoding="UTF-8"?>
<svg width="122px" height="16px" viewBox="0 0 122 16" version="1.1" xmlns="http://www.w3.org/2000/svg" xmlns:xlink="http://www.w3.org/1999/xlink">
    <title>Group 2 Copy</title>
    <g id="v1" stroke="none" stroke-width="1" fill="none" fill-rule="evenodd">
        <g id="Group-2-Copy" fill="#ABB5BC">
            <path d="M2.11363435,12 L2.11363435,8.84659392 L3.98863256,8.84659392 C6.01703972,8.84659392 6.90340251,7.60227692 6.90340251,6.0340966 C6.90340251,4.46591628 6.01703972,3.2727356 3.97158712,3.2727356 L1.05681717,3.2727356 L1.05681717,12 L2.11363435,12 Z M3.98863256,7.90909481 L2.11363435,7.90909481 L2.11363435,4.2102347 L3.97158712,4.2102347 C5.3863585,4.2102347 5.86363077,4.96023399 5.86363077,6.0340966 C5.86363077,7.10795921 5.3863585,7.90909481 3.98863256,7.90909481 Z M10.9346557,12.1363635 C12.7073813,12.1363635 13.9005619,10.7897739 13.9005619,8.76136672 C13.9005619,6.71591413 12.7073813,5.36932451 10.9346557,5.36932451 C9.1619301,5.36932451 7.96874941,6.71591413 7.96874941,8.76136672 C7.96874941,10.7897739 9.1619301,12.1363635 10.9346557,12.1363635 Z M10.9346557,11.2329553 C9.58806605,11.2329553 8.97443027,10.0738655 8.97443027,8.76136672 C8.97443027,7.44886798 9.58806605,6.27273273 10.9346557,6.27273273 C12.2812453,6.27273273 12.8948811,7.44886798 12.8948811,8.76136672 C12.8948811,10.0738655 12.2812453,11.2329553 10.9346557,11.2329553 Z M17.6718718,12 L19.1036886,6.9715957 L19.2059612,6.9715957 L20.637778,12 L21.6264134,12 L23.6207297,5.4545517 L22.5639126,5.4545517 L21.1491412,10.4488651 L21.0809594,10.4488651 L19.7002789,5.4545517 L18.6264163,5.4545517 L17.2286904,10.4659106 L17.1605086,10.4659106 L15.7457372,5.4545517 L14.6889201,5.4545517 L16.6832363,12 L17.6718718,12 Z M27.4602238,12.1363635 C28.789768,12.1363635 29.7613579,11.4715914 30.0681758,10.482956 L29.0965859,10.210229 C28.8409043,10.8920465 28.2613594,11.2329553 27.4602238,11.2329553 C26.2755658,11.2329553 25.5298279,10.482956 25.4275553,9.06818461 L30.1704485,9.06818461 L30.1704485,8.64204866 C30.1704485,6.20455098 28.7215862,5.36932451 27.3579511,5.36932451 C25.5852256,5.36932451 24.4090903,6.76705045 24.4090903,8.77841216 C24.4090903,10.7897739 25.5681801,12.1363635 27.4602238,12.1363635 Z M29.1477222,8.19886726 L25.4488621,8.19886726 C25.6107937,6.9715957 26.3522703,6.27273273 27.3579511,6.27273273 C28.4488621,6.27273273 29.1477222,7.09091377 29.1477222,8.19886726 Z M32.7272709,12 L32.7272709,8.30113989 C32.7443163,7.4147771 33.3579521,6.3920508 34.4318147,6.3920508 C34.72159,6.3920508 34.8920416,6.47727799 34.9943142,6.52841431 L35.3352229,5.5909152 C35.1306777,5.47159714 34.8068144,5.35227907 34.4659056,5.35227907 C33.6988609,5.35227907 32.9829525,5.94886941 32.7954526,6.57955062 L32.7272709,6.57955062 L32.7272709,5.4545517 L31.72159,5.4545517 L31.72159,12 L32.7272709,12 Z M38.829542,12.1363635 C40.1590861,12.1363635 41.1306761,11.4715914 41.437494,10.482956 L40.465904,10.210229 C40.2102225,10.8920465 39.6306776,11.2329553 38.829542,11.2329553 C37.644884,11.2329553 36.8991461,10.482956 36.7968734,9.06818461 L41.5397666,9.06818461 L41.5397666,8.64204866 C41.5397666,6.20455098 40.0909044,5.36932451 38.7272693,5.36932451 C36.9545437,5.36932451 35.7784085,6.76705045 35.7784085,8.77841216 C35.7784085,10.7897739 36.9374983,12.1363635 38.829542,12.1363635 Z M40.5170404,8.19886726 L36.8181802,8.19886726 C36.9801119,6.9715957 37.7215885,6.27273273 38.7272693,6.27273273 C39.8181802,6.27273273 40.5170404,7.09091377 40.5170404,8.19886726 Z M45.5624968,12.1363635 C46.8238592,12.1363635 47.2670406,11.3522733 47.4886313,10.9943191 L47.5909039,10.9943191 L47.5909039,12 L48.5624939,12 L48.5624939,3.2727356 L47.556813,3.2727356 L47.556813,6.49432343 L47.4886313,6.49432343 C47.2670406,6.15341467 46.8579501,5.36932451 45.5795422,5.36932451 C43.9261347,5.36932451 42.7840903,6.68182325 42.7840903,8.74432129 C42.7840903,10.8238648 43.9261347,12.1363635 45.5624968,12.1363635 Z M45.6988603,11.2329553 C44.4374978,11.2329553 43.7897712,10.1250018 43.7897712,8.72727585 C43.7897712,7.34659535 44.4204524,6.27273273 45.6988603,6.27273273 C46.9261318,6.27273273 47.5738585,7.26136816 47.5738585,8.72727585 C47.5738585,10.210229 46.9090864,11.2329553 45.6988603,11.2329553 Z M56.7784082,12.1363635 C58.4147674,12.1363635 59.5568118,10.8238648 59.5568118,8.74432129 C59.5568118,6.68182325 58.4147674,5.36932451 56.7613599,5.36932451 C55.482952,5.36932451 55.090907,6.15341467 54.8693163,6.49432343 L54.7840891,6.49432343 L54.7840891,3.2727356 L53.7784082,3.2727356 L53.7784082,12 L54.7499982,12 L54.7499982,10.9943191 L54.8693163,10.9943191 C55.090907,11.3522733 55.5170429,12.1363635 56.7784082,12.1363635 Z M56.6420418,11.2329553 C55.4318157,11.2329553 54.7670436,10.210229 54.7670436,8.72727585 C54.7670436,7.26136816 55.4147703,6.27273273 56.6420418,6.27273273 C57.9204497,6.27273273 58.5511309,7.34659535 58.5511309,8.72727585 C58.5511309,10.1250018 57.9034043,11.2329553 56.6420418,11.2329553 Z M61.4659076,14.5397703 C62.3693159,14.5397703 63.0170425,14.062498 63.3920422,13.0568172 L66.2045395,5.4545517 L65.1136314,5.4545517 L63.306815,10.6704558 L63.2343719,10.6704558 L61.4318168,5.4545517 L60.3409087,5.4545517 L62.7698837,12.0426136 L62.5397702,12.6477267 C62.1647706,13.6193166 61.7045438,13.7045438 60.9886354,13.5340894 L60.7329538,14.4204522 C60.8352264,14.4715886 61.1249989,14.5397703 61.4659076,14.5397703 Z" id="Poweredby" fill-rule="nonzero"></path>
            <g id="Group" transform="translate(72.000000, 2.400000)">
                <path d="M1.73251534,2.71220859 L1.73251534,3.47233129 C2.04509202,3.16374233 2.38374233,2.9293865 2.74877301,2.77509202 C3.11319018,2.62110429 3.50398773,2.54288344 3.91871166,2.54288344 C4.81993865,2.54288344 5.58619632,2.88368098 6.21809816,3.56312883 C6.85,4.24503067 7.16472393,5.11773006 7.16472393,6.18398773 C7.16472393,7.2109816 6.83895706,8.07079755 6.18558282,8.7609816 C5.53435583,9.45361963 4.76134969,9.7990184 3.86687117,9.7990184 C3.46932515,9.7990184 3.09815951,9.72723926 2.75490798,9.58613497 C2.41196319,9.44503067 2.07116564,9.21282209 1.73251534,8.88920245 L1.73251534,12.1569939 L-4.35915789e-15,12.1569939 L-4.35915789e-15,2.71220859 L1.73251534,2.71220859 Z M3.55184049,4.13214724 C3.00674847,4.13214724 2.55306748,4.31895706 2.19478528,4.6901227 C1.83466258,5.06374233 1.65429448,5.54993865 1.65429448,6.15116564 C1.65429448,6.76588957 1.83466258,7.26282209 2.19478528,7.6407362 C2.55306748,8.02079755 3.00674847,8.20944785 3.55184049,8.20944785 C4.08159509,8.20944785 4.52668712,8.01650307 4.88957055,7.63214724 C5.25184049,7.24564417 5.43220859,6.75484663 5.43220859,6.15791411 C5.43220859,5.56496933 5.25398773,5.07877301 4.89815951,4.7008589 C4.54417178,4.32110429 4.09478528,4.13214724 3.55184049,4.13214724 L3.55184049,4.13214724 Z" id="Fill-1"></path>
                <path d="M8.14653374,0.0416564417 L9.87904908,0.0416564417 L9.87904908,3.4198773 C10.2176994,3.12693252 10.5566564,2.90760736 10.8996012,2.76220859 C11.2403988,2.61680982 11.5879448,2.54288344 11.9373313,2.54288344 C12.6213804,2.54288344 13.1989877,2.7793865 13.6680061,3.25515337 C14.0695399,3.66527607 14.2692331,4.26895706 14.2692331,5.06374233 L14.2692331,9.62969325 L12.5627914,9.62969325 L12.5627914,6.6008589 C12.5627914,5.80177914 12.5259816,5.25883436 12.449908,4.97662577 C12.3738344,4.69226994 12.2434663,4.48184049 12.0591104,4.34042945 C11.8765951,4.20177914 11.648681,4.13214724 11.3796626,4.13214724 C11.0299693,4.13214724 10.7281288,4.24932515 10.4762883,4.48184049 C10.2265951,4.71404908 10.0529755,5.03092025 9.9551227,5.43276074 C9.9051227,5.64104294 9.87904908,6.11435583 9.87904908,6.85484663 L9.87904908,9.62969325 L8.14653374,9.62969325 L8.14653374,0.0416564417 Z" id="Fill-4"></path>
                <path d="M20.6053374,2.71220859 L22.3378528,2.71220859 L22.3378528,9.62969325 L20.6053374,9.62969325 L20.6053374,8.89349693 C20.2666871,9.21496933 19.9255828,9.44503067 19.5847853,9.58613497 C19.2439877,9.72723926 18.8728221,9.7990184 18.4752761,9.7990184 C17.5786503,9.7990184 16.8056442,9.45361963 16.1522699,8.7609816 C15.498589,8.07079755 15.1731288,7.2109816 15.1731288,6.18398773 C15.1731288,5.11773006 15.49,4.24503067 16.1215951,3.56312883 C16.7534969,2.88368098 17.5200613,2.54288344 18.4231288,2.54288344 C18.84,2.54288344 19.2286503,2.62110429 19.5933742,2.77509202 C19.9584049,2.9293865 20.294908,3.16374233 20.6053374,3.47233129 L20.6053374,2.71220859 Z M18.7792638,4.13214724 C18.2409202,4.13214724 17.7933742,4.32110429 17.4396933,4.7008589 C17.0835583,5.07877301 16.9053374,5.56496933 16.9053374,6.15791411 C16.9053374,6.75484663 17.0857055,7.24564417 17.4482822,7.63214724 C17.8111656,8.01650307 18.2559509,8.20944785 18.7857055,8.20944785 C19.3307975,8.20944785 19.7844785,8.02079755 20.1427607,7.6407362 C20.5031902,7.26282209 20.6835583,6.76588957 20.6835583,6.15116564 C20.6835583,5.54993865 20.5031902,5.06374233 20.1427607,4.6901227 C19.7844785,4.31895706 19.3286503,4.13214724 18.7792638,4.13214724 L18.7792638,4.13214724 Z" id="Fill-6"></path>
                <path d="M27.8531595,3.69147239 L26.7804601,4.7706135 C26.346411,4.33625767 25.9510123,4.11907975 25.595184,4.11907975 C25.4019325,4.11907975 25.2497853,4.16018405 25.1390491,4.24300613 C25.0283129,4.32521472 24.9740184,4.42736196 24.9740184,4.54883436 C24.9740184,4.64239264 25.0089877,4.72705521 25.0783129,4.80527607 C25.1479448,4.88349693 25.3215644,4.9896319 25.5973313,5.12644172 L26.2313804,5.44331288 C26.900092,5.77153374 27.3602147,6.10773006 27.609908,6.44883436 C27.8596012,6.79177914 27.9832209,7.19147239 27.9832209,7.65159509 C27.9832209,8.26386503 27.757454,8.77644172 27.3059202,9.18441718 C26.8543865,9.59484663 26.2485583,9.7991411 25.4887423,9.7991411 C24.4813804,9.7991411 23.6737117,9.40588957 23.0721779,8.61785276 L24.1424233,7.45404908 C24.3467178,7.6908589 24.5853681,7.88380368 24.8614417,8.0295092 C25.1347546,8.17490798 25.3780061,8.24852761 25.5908896,8.24852761 C25.8188037,8.24852761 26.0056135,8.19453988 26.1445706,8.08349693 C26.2856748,7.97306748 26.355,7.84699387 26.355,7.70374233 C26.355,7.43656442 26.1031595,7.17613497 25.5973313,6.92429448 L25.0132822,6.63104294 C23.8927301,6.06877301 23.3326074,5.36539877 23.3326074,4.52092025 C23.3326074,3.97582822 23.5433436,3.50895706 23.9645092,3.12245399 C24.3856748,2.73595092 24.9243252,2.54269939 25.5798466,2.54269939 C26.0292331,2.54269939 26.4503988,2.64269939 26.8479448,2.8402454 C27.2430368,3.03779141 27.5773926,3.32214724 27.8531595,3.69147239" id="Fill-8"></path>
                <path d="M35.8087117,6.65935583 L30.2396933,6.65935583 C30.3197546,7.15230061 30.5347853,7.5452454 30.8823313,7.83849693 C31.2295706,8.12929448 31.6746626,8.27469325 32.2133129,8.27469325 C32.8602454,8.27469325 33.4139264,8.04677914 33.8786503,7.59095092 L35.3332515,8.27898773 C34.9706748,8.7958589 34.5341718,9.17776074 34.0283436,9.42776074 C33.5203681,9.67530675 32.9188344,9.79892638 32.2219018,9.79892638 C31.1406135,9.79892638 30.2593252,9.45812883 29.5795706,8.77407975 C28.9001227,8.09217791 28.5590184,7.23696319 28.5590184,6.20996933 C28.5590184,5.15690184 28.9001227,4.28205521 29.5795706,3.58726994 C30.2593252,2.89033742 31.1102454,2.54279141 32.1372393,2.54279141 C33.2249693,2.54279141 34.1108589,2.89033742 34.792454,3.58297546 C35.4743558,4.27745399 35.8151534,5.19156442 35.8151534,6.33174847 L35.8087117,6.65935583 Z M34.082638,5.30444785 C33.9676074,4.92684049 33.7418405,4.61855828 33.4053374,4.38174847 C33.0666871,4.1452454 32.6755828,4.02776074 32.2283436,4.02776074 C31.7442945,4.02776074 31.3209816,4.16027607 30.9538037,4.42745399 C30.7258896,4.59248466 30.5130061,4.88542945 30.3179141,5.30444785 L34.082638,5.30444785 Z" id="Fill-10"></path>
                <path d="M42.1043865,6.53873683e-15 L44.9810736,6.53873683e-15 L38.2829141,11.5159509 C38.1053067,11.8217791 37.7096012,12.0717791 37.4040798,12.0717791 L34.5270859,12.0717791 L41.2252454,0.555828221 C41.4031595,0.25 41.7985583,6.53873683e-15 42.1043865,6.53873683e-15" id="Fill-12"></path>
                <path d="M47.0408282,6.53873683e-15 L49.9178221,6.53873683e-15 L43.2196626,11.5159509 C43.0417485,11.8217791 42.6463497,12.0717791 42.3405215,12.0717791 L39.4635276,12.0717791 L46.1616871,0.555828221 C46.3396012,0.25 46.735,6.53873683e-15 47.0408282,6.53873683e-15" id="Fill-15"></path>
            </g>
        </g>
    </g>
</svg>